<svg id="Layer_1" data-name="Layer 1" xmlns="http://www.w3.org/2000/svg" viewBox="0 0 663.66 121.81"><defs><style>.cls-1{fill:#383b37;}</style></defs><title>LP-RevisedLogo-20160104</title><path class="cls-1" d="M108,116.21a5.08,5.08,0,0,1-.42,2.25,1.78,1.78,0,0,1-1.71.71,1.69,1.69,0,0,1-1.46-.69,4.68,4.68,0,0,1-.5-2.59V100.41h-2.8V115q0,1.32.07,2.2a9,9,0,0,0,.35,1.83,3.85,3.85,0,0,0,.78,1.51,3.71,3.71,0,0,0,1.43.92,6,6,0,0,0,2.21.36,6.53,6.53,0,0,0,1.79-.22,5.23,5.23,0,0,0,1.29-.53,2.64,2.64,0,0,0,.87-0.91,7,7,0,0,0,.53-1,5.08,5.08,0,0,0,.25-1.23q0.08-.8.1-1.22t0-1.26v-15H108v15.79ZM0,87.49H91.5v-4.2H0v4.2Zm177.28,22.59a5.54,5.54,0,0,0,.91-2,10.7,10.7,0,0,0,.22-2.21,7.86,7.86,0,0,0-.38-2.59,4.83,4.83,0,0,0-.85-1.61,3.11,3.11,0,0,0-1.3-.83,5.61,5.61,0,0,0-1.36-.34q-0.53,0-1.34,0h-3.36v21.11h2.8V111.2h0.06l3.81,10.33h2.91l-3.89-10.28A2.69,2.69,0,0,0,177.28,110.08Zm-4.66-.31v-7h0.45a1.88,1.88,0,0,1,1.92.91,6.38,6.38,0,0,1,.46,2.73Q175.45,110,172.62,109.77Zm-48-6.92H128v18.68h2.8V102.85h3.16v-2.44h-9.27v2.44Zm23.16,18.68h7.53v-2.44h-4.73v-7.17h4.23v-2.44h-4.23v-6.64h4.73v-2.44h-7.53v21.11Zm166.35-44a10,10,0,0,0,10-10V44.07a3.5,3.5,0,0,1,3.5-3.5h41.5a3.5,3.5,0,0,1,0,7h-28a10,10,0,1,0,0,20h43c4.14,0,7.5-10.52,7.5-23.5s-3.36-23.5-7.5-23.5h-70a10,10,0,0,0-10,10v37A10,10,0,0,0,314.16,77.57Zm140.5-23.5H405.91a6.75,6.75,0,1,0,0,13.5h61.75c3.59,0,6.5-6.77,6.5-15.13s-2.91-15.12-6.5-15.12h-49a1.63,1.63,0,0,1,0-3.25h48.75a6.75,6.75,0,1,0,0-13.5H405.66c-3.59,0-6.5,6.77-6.5,15.12s2.91,15.13,6.5,15.13h49A1.62,1.62,0,0,1,454.66,54.07Zm-249.5,13.5a10,10,0,0,0,10-10V44.07a3.5,3.5,0,0,1,3.5-3.5h13a3.5,3.5,0,0,1,3.5,3.5v13.5a10,10,0,1,0,20,0V44.07a3.5,3.5,0,0,1,3.5-3.5h13a3.5,3.5,0,0,1,3.5,3.5v13.5a10,10,0,0,0,20,0v-27a10,10,0,0,0-10-10h-80a10,10,0,0,0-10,10v27A10,10,0,0,0,205.16,67.57Zm284,0h43a10,10,0,0,0,0-20h-28a3.5,3.5,0,0,1,0-7h41.91v0a3.49,3.49,0,0,1,3.09,3.46v0h0V57.57a10,10,0,0,0,20,0v-27a10,10,0,0,0-10-10h-70c-4.14,0-7.5,10.52-7.5,23.5S485,67.57,489.16,67.57Zm97-27h20.25a3.5,3.5,0,0,1,3.5,3.5v13.5a10,10,0,0,0,20,0V44.06a3.5,3.5,0,0,1,3.5-3.5h20.25a10,10,0,1,0,0-20h-67.5A10,10,0,0,0,586.16,40.57ZM34.64,107.19a15.56,15.56,0,0,0-.31-2.1,13.33,13.33,0,0,0-.6-1.86,5.34,5.34,0,0,0-1-1.64,4.52,4.52,0,0,0-1.46-1,5,5,0,0,0-4,0,4.52,4.52,0,0,0-1.46,1,5.32,5.32,0,0,0-1,1.64,13.19,13.19,0,0,0-.6,1.86,15.4,15.4,0,0,0-.31,2.1q-0.11,1.26-.13,2t0,1.82q0,1.12,0,1.82t0.13,2a15.42,15.42,0,0,0,.31,2.1,13.18,13.18,0,0,0,.6,1.86,5.33,5.33,0,0,0,1,1.64,4.55,4.55,0,0,0,1.46,1,5,5,0,0,0,4,0,4.55,4.55,0,0,0,1.46-1,5.35,5.35,0,0,0,1-1.64,13.32,13.32,0,0,0,.6-1.86,15.58,15.58,0,0,0,.31-2.1q0.11-1.26.13-2t0-1.82q0-1.12,0-1.82T34.64,107.19Zm-3.33,9.87q-0.5,2.11-2,2.11t-2-2.11a27.86,27.86,0,0,1-.5-6.09,27.87,27.87,0,0,1,.5-6.09q0.5-2.11,2-2.11t2,2.11a28,28,0,0,1,.5,6.09A27.93,27.93,0,0,1,31.3,117.06Zm27.55-16.65L57,109.71l-0.84,5.07-0.08.87H56.06l-3-15.23H50.65l-1.74,21.11h2.66L52.39,107h0.06l2.72,14.56h1.93L59.28,110l0.48-3h0.06l0.06,2.77L60,113.66l0.5,7.87h2.74l-2-21.11H58.86Zm26.73,1.32a3.31,3.31,0,0,0-1.32-.88,5.43,5.43,0,0,0-1.43-.38q-0.6-.06-1.53-0.06H78v21.11h2.8v-9.35q3.22,0.11,4.63-1.36t1.41-4.75a8.63,8.63,0,0,0-.36-2.67A4.85,4.85,0,0,0,85.58,101.73ZM83.16,109a2.65,2.65,0,0,1-2.41.76v-7h0.39q2.69,0,2.69,3.5A4.49,4.49,0,0,1,83.16,109Zm-82,2.27q0,10.5,6.47,10.5a4.09,4.09,0,0,0,2.24-.59v-2.46a3.61,3.61,0,0,1-1.68.42q-4.06,0-4.06-8.06,0-1,0-1.57t0.13-1.74a8.31,8.31,0,0,1,.35-1.88,10.42,10.42,0,0,1,.67-1.55,2.88,2.88,0,0,1,1.13-1.2,3.25,3.25,0,0,1,1.64-.41,4.2,4.2,0,0,1,1.79.53v-2.55a4.78,4.78,0,0,0-2.44-.62Q1.18,100.14,1.18,111.31ZM7.5,67.57h70a10,10,0,0,0,0-20h-55a3.5,3.5,0,0,1,0-7h55a10,10,0,1,0,0-20H7.5C3.36,20.57,0,31.09,0,44.07S3.36,67.57,7.5,67.57ZM216.33,110.1l-2.13-2.32a3.64,3.64,0,0,1-.78-2.3,2.85,2.85,0,0,1,.69-1.92,2.27,2.27,0,0,1,1.81-.8,4.08,4.08,0,0,1,2.38.9l0-2.83a5.74,5.74,0,0,0-3-.7,4.24,4.24,0,0,0-3.5,1.53,6,6,0,0,0-1.23,3.88,6.41,6.41,0,0,0,.6,2.8,7.63,7.63,0,0,0,1.47,2.13q0.87,0.87,1.75,1.68a8.11,8.11,0,0,1,1.48,1.82,4.13,4.13,0,0,1,.6,2.16,3.46,3.46,0,0,1-.62,2.1,2.15,2.15,0,0,1-1.85.84,4.78,4.78,0,0,1-2.77-1.09v2.83a4.77,4.77,0,0,0,3.08,1,4.48,4.48,0,0,0,3.61-1.6,5.88,5.88,0,0,0,1.34-3.92,6.85,6.85,0,0,0-.69-3.26A13.72,13.72,0,0,0,216.33,110.1ZM582,121.53h7.53v-2.44H584.8v-7.17H589v-2.44H584.8v-6.64h4.73v-2.44H582v21.11Zm-23.16-18.68h3.3v18.68H565V102.85h3.16v-2.44h-9.27v2.44Zm-18-2.44-4.59,21.11H539l0.78-4.12H544l0.78,4.12h2.83L543,100.41h-2.21Zm-0.64,14.81,1.68-10.72h0.06l1.06,7.67,0.56,3.05h-3.36Zm-42.39,6.3h7.53v-2.44h-4.73v-7.17h4.23v-2.44h-4.23v-6.64h4.73v-2.44h-7.53v21.11Zm164.05-14.34a15.56,15.56,0,0,0-.31-2.1,13.33,13.33,0,0,0-.6-1.86,5.34,5.34,0,0,0-1-1.64,4.52,4.52,0,0,0-1.46-1,5,5,0,0,0-4,0,4.52,4.52,0,0,0-1.46,1,5.32,5.32,0,0,0-1,1.64,13.19,13.19,0,0,0-.6,1.86,15.4,15.4,0,0,0-.31,2.1q-0.11,1.26-.13,2t0,1.82q0,1.12,0,1.82t0.13,2a15.42,15.42,0,0,0,.31,2.1,13.18,13.18,0,0,0,.6,1.86,5.33,5.33,0,0,0,1,1.64,4.55,4.55,0,0,0,1.46,1,5,5,0,0,0,4,0,4.55,4.55,0,0,0,1.46-1,5.35,5.35,0,0,0,1-1.64,13.32,13.32,0,0,0,.6-1.86,15.58,15.58,0,0,0,.31-2.1q0.11-1.26.13-2t0-1.82q0-1.12,0-1.82T661.83,107.19Zm-3.33,9.87q-0.5,2.11-2,2.11t-2-2.11A27.86,27.86,0,0,1,654,111a27.87,27.87,0,0,1,.5-6.09q0.5-2.11,2-2.11t2,2.11A28,28,0,0,1,659,111,27.93,27.93,0,0,1,658.5,117.06ZM611,107.95l0.67,8.46-0.06.06-4.93-16H604v21.11h2.8v-7.76l-0.42-7.08-0.17-1.37,0.06-.06,4.93,16.27h2.6V100.41H611v7.53Zm-131.74.7H475v-8.23h-2.8v21.11H475V111.08h4.23v10.44h2.8V100.41h-2.8v8.23ZM191.16,87.49h472.5v-4.2H191.16v4.2Zm438.36,34h7.53v-2.44h-4.73v-7.17h4.23v-2.44h-4.23v-6.64h4.73v-2.44h-7.53v21.11ZM320.93,102.85h3.3v18.68H327V102.85h3.16v-2.44h-9.27v2.44Zm-61.85,8.46q0,10.5,6.47,10.5a4.09,4.09,0,0,0,2.24-.59v-2.46a3.61,3.61,0,0,1-1.68.42q-4.06,0-4.06-8.06,0-1,0-1.57t0.13-1.74a8.31,8.31,0,0,1,.35-1.88,10.42,10.42,0,0,1,.67-1.55,2.88,2.88,0,0,1,1.13-1.2,3.25,3.25,0,0,1,1.64-.41,4.2,4.2,0,0,1,1.79.53v-2.55a4.78,4.78,0,0,0-2.44-.62Q259.08,100.14,259.08,111.31Zm190-8.46h3.3v18.68h2.8V102.85h3.16v-2.44h-9.27v2.44ZM244.3,107.19a15.56,15.56,0,0,0-.31-2.1,13.33,13.33,0,0,0-.6-1.86,5.34,5.34,0,0,0-1-1.64,4.52,4.52,0,0,0-1.46-1,5,5,0,0,0-4,0,4.52,4.52,0,0,0-1.46,1,5.32,5.32,0,0,0-1,1.64,13.19,13.19,0,0,0-.6,1.86,15.4,15.4,0,0,0-.31,2.1q-0.11,1.26-.13,2t0,1.82q0,1.12,0,1.82t0.13,2a15.42,15.42,0,0,0,.31,2.1,13.18,13.18,0,0,0,.6,1.86,5.33,5.33,0,0,0,1,1.64,4.55,4.55,0,0,0,1.46,1,5,5,0,0,0,4,0,4.55,4.55,0,0,0,1.46-1,5.35,5.35,0,0,0,1-1.64,13.32,13.32,0,0,0,.6-1.86,15.58,15.58,0,0,0,.31-2.1q0.11-1.26.13-2t0-1.82q0-1.12,0-1.82T244.3,107.19ZM241,117.06q-0.5,2.11-2,2.11t-2-2.11a27.86,27.86,0,0,1-.5-6.09,27.87,27.87,0,0,1,.5-6.09q0.5-2.11,2-2.11t2,2.11a28,28,0,0,1,.5,6.09A27.93,27.93,0,0,1,241,117.06Zm59.78,4.47h7.53v-2.44h-4.73v-7.17h4.23v-2.44h-4.23v-6.64h4.73v-2.44h-7.53v21.11Zm-18.51,0H285V100.41h-2.8v21.11Zm128.77,0h2.8v-9.6h4.31v-2.44h-4.31v-6.64h4.79v-2.44H411v21.11Zm-15.32-14.34a15.56,15.56,0,0,0-.31-2.1,13.33,13.33,0,0,0-.6-1.86,5.34,5.34,0,0,0-1-1.64,4.52,4.52,0,0,0-1.46-1,5,5,0,0,0-4,0,4.52,4.52,0,0,0-1.46,1,5.32,5.32,0,0,0-1,1.64,13.19,13.19,0,0,0-.6,1.86,15.4,15.4,0,0,0-.31,2.1q-0.11,1.26-.13,2t0,1.82q0,1.12,0,1.82t0.13,2a15.42,15.42,0,0,0,.31,2.1,13.18,13.18,0,0,0,.6,1.86,5.33,5.33,0,0,0,1,1.64,4.55,4.55,0,0,0,1.46,1,5,5,0,0,0,4,0,4.55,4.55,0,0,0,1.46-1,5.35,5.35,0,0,0,1-1.64,13.32,13.32,0,0,0,.6-1.86,15.58,15.58,0,0,0,.31-2.1q0.11-1.26.13-2t0-1.82q0-1.12,0-1.82T395.69,107.19Zm-3.33,9.87q-0.5,2.11-2,2.11t-2-2.11a27.86,27.86,0,0,1-.5-6.09,27.87,27.87,0,0,1,.5-6.09q0.5-2.11,2-2.11t2,2.11a28,28,0,0,1,.5,6.09A27.93,27.93,0,0,1,392.36,117.06ZM183.93,11l-9.55-9.55a5,5,0,0,0-7.07,0l-8.37,8.37a38.47,38.47,0,0,0-35.23,0l-8.37-8.37a5,5,0,0,0-7.07,0L98.73,11a5,5,0,0,0,0,7.07l8.37,8.37a38.47,38.47,0,0,0,0,35.23l-8.37,8.37a5,5,0,0,0,0,7.07l9.55,9.55a5,5,0,0,0,7.07,0l8.37-8.37a38.47,38.47,0,0,0,35.23,0l8.37,8.37a5,5,0,0,0,7.07,0l9.55-9.55a5,5,0,0,0,0-7.07l-8.37-8.37a38.47,38.47,0,0,0,0-35.23l8.37-8.37A5,5,0,0,0,183.93,11Zm-42.6,48.06a15,15,0,1,1,15-15A15,15,0,0,1,141.33,59.07Zm207.21,48.4-0.45,2.72H348l-2.58-9.77h-3l4.17,12v9.1h2.8v-9.1l3.92-12h-3Z"/></svg>